<?xml version="1.0" standalone="no"?>
<!DOCTYPE svg PUBLIC "-//W3C//DTD SVG 20010904//EN"
 "http://www.w3.org/TR/2001/REC-SVG-20010904/DTD/svg10.dtd">
<svg version="1.0" xmlns="http://www.w3.org/2000/svg"
 width="750.000000pt" height="750.000000pt" viewBox="0 0 750.000000 750.000000"
 preserveAspectRatio="xMidYMid meet">
<metadata>
Created by potrace 1.11, written by Peter Selinger 2001-2013
</metadata>
<g transform="translate(0.000000,750.000000) scale(0.100000,-0.100000)"
fill="#000000" stroke="none">
<path d="M1927 4354 c-5 -6 -10 -550 -12 -1349 l0 -160 148 -3 147 -3 2 263
c1 145 2 270 4 278 1 8 2 36 3 63 l1 47 78 0 c42 0 154 -3 249 -7 l172 -6 -6
-324 -6 -323 44 -1 c24 0 90 -2 146 -3 56 -2 106 0 112 3 6 4 11 275 13 766
l3 760 -152 3 -153 3 -1 -108 c0 -145 -10 -487 -13 -491 -8 -7 -397 -14 -440
-8 l-49 8 6 299 7 299 -148 0 c-82 0 -152 -3 -155 -6z m33 -286 c0 -16 -3 -19
-11 -11 -6 6 -8 16 -5 22 11 17 16 13 16 -11z m-3 -210 c-3 -7 -5 -2 -5 12 0
14 2 19 5 13 2 -7 2 -19 0 -25z m-10 -210 c-3 -8 -6 -5 -6 6 -1 11 2 17 5 13
3 -3 4 -12 1 -19z m14 -351 c-1 -12 -15 -9 -19 4 -3 6 1 10 8 8 6 -3 11 -8 11
-12z m-14 -104 c-3 -10 -5 -4 -5 12 0 17 2 24 5 18 2 -7 2 -21 0 -30z m2 -113
c1 -27 -3 -50 -8 -50 -4 0 -9 23 -10 50 0 28 3 50 8 50 4 0 9 -22 10 -50z
m235 -25 c-4 -8 -8 -15 -10 -15 -2 0 -4 7 -4 15 0 8 4 15 10 15 5 0 7 -7 4
-15z m-197 -27 c-3 -8 -6 -5 -6 6 -1 11 2 17 5 13 3 -3 4 -12 1 -19z m-34 -51
c-3 -5 -9 -3 -14 4 -4 7 -5 17 -2 22 3 5 9 3 14 -4 4 -7 5 -17 2 -22z m230
-32 c-5 -13 -23 -22 -23 -11 0 15 14 35 21 31 4 -3 6 -12 2 -20z m-229 -33
c-22 -5 -27 3 -19 29 l7 22 14 -24 c11 -20 10 -25 -2 -27z m14 -19 c-10 -2
-18 -11 -18 -19 0 -8 -4 -14 -9 -14 -5 0 -7 9 -4 20 3 13 13 20 27 19 17 -1
17 -2 4 -6z m222 -17 c0 -24 -17 -28 -23 -6 -3 13 0 20 9 20 8 0 14 -6 14 -14z
m-187 -13 c-7 -2 -21 -2 -30 0 -10 3 -4 5 12 5 17 0 24 -2 18 -5z"/>
<path d="M3393 4352 l-53 -3 0 -135 0 -134 133 -1 c72 -1 141 -3 152 -4 11 -1
35 -2 54 -3 l34 -2 -6 -608 c-3 -337 -2 -614 3 -622 11 -17 300 -31 306 -15 2
6 5 287 6 625 l3 615 185 5 185 5 5 55 c3 30 3 91 0 135 l-5 80 -475 5 c-261
3 -499 4 -527 2z"/>
<path d="M4655 4340 c-2 -3 -4 -65 -4 -138 -1 -120 0 -132 16 -132 10 0 93 -1
185 -1 l166 -1 7 -146 c4 -81 6 -360 3 -620 -2 -260 -2 -475 2 -477 6 -4 215
-8 278 -6 l22 1 0 488 c0 269 3 550 7 625 l6 137 184 0 183 0 0 130 0 130 -92
1 c-51 1 -288 4 -526 8 -239 3 -435 4 -437 1z m1035 -60 c0 -5 -2 -10 -4 -10
-3 0 -8 5 -11 10 -3 6 -1 10 4 10 6 0 11 -4 11 -10z m0 -180 c0 -5 -10 -10
-22 -9 -22 0 -22 1 -3 9 11 5 21 9 23 9 1 1 2 -3 2 -9z m-393 -382 c-3 -8 -6
-5 -6 6 -1 11 2 17 5 13 3 -3 4 -12 1 -19z m10 -600 c-3 -7 -5 -2 -5 12 0 14
2 19 5 13 2 -7 2 -19 0 -25z m-7 -74 c0 -8 -5 -12 -10 -9 -6 4 -8 11 -5 16 9
14 15 11 15 -7z"/>
<path d="M5584 1802 c17 -18 34 -32 40 -32 5 0 2 6 -9 13 -11 9 -15 19 -10 27
5 9 4 11 -4 6 -6 -4 -20 -2 -29 5 -9 7 -4 -1 12 -19z"/>
<path d="M1876 1787 c3 -10 9 -15 12 -12 3 3 0 11 -7 18 -10 9 -11 8 -5 -6z"/>
<path d="M1833 1760 c2 -8 12 -16 23 -17 13 -2 15 -1 4 4 -8 3 -19 11 -23 17
-6 7 -7 6 -4 -4z"/>
<path d="M5532 1735 c15 -16 29 -27 31 -24 3 2 -10 15 -27 28 l-31 24 27 -28z"/>
<path d="M1960 1725 c0 -3 9 -14 20 -25 22 -22 26 -14 6 13 -13 16 -26 23 -26
12z"/>
<path d="M5446 1698 c3 -18 10 -42 14 -52 6 -18 7 -17 12 7 3 14 2 24 -2 22
-7 -5 -22 36 -16 42 7 8 36 -10 36 -22 0 -8 8 -11 21 -8 20 6 19 8 -12 24 -51
27 -62 25 -53 -13z"/>
<path d="M2012 1670 c0 -14 2 -19 5 -12 2 6 2 18 0 25 -3 6 -5 1 -5 -13z"/>
<path d="M5355 1659 c-4 -6 -5 -12 -2 -15 2 -3 7 2 10 11 7 17 1 20 -8 4z"/>
<path d="M1940 1646 c7 -7 13 -7 20 0 6 6 3 10 -10 10 -13 0 -16 -4 -10 -10z"/>
<path d="M2090 1636 c0 -11 -5 -15 -12 -10 -10 6 -10 4 0 -7 18 -19 15 -34 -5
-18 -15 13 -15 12 -2 -8 8 -13 17 -23 22 -23 4 0 6 4 2 9 -3 5 -1 12 4 16 6 3
8 12 4 20 -4 11 0 14 13 9 20 -8 19 -6 -8 15 -16 12 -18 11 -18 -3z"/>
<path d="M5421 1633 c7 -10 15 -20 16 -22 2 -2 3 3 3 11 0 9 -7 19 -16 22 -15
6 -15 4 -3 -11z"/>
<path d="M5370 1630 c-23 -7 -23 -8 -3 -9 12 -1 25 4 28 9 3 6 5 10 3 9 -2 -1
-14 -5 -28 -9z"/>
<path d="M2028 1613 c7 -3 16 -2 19 1 4 3 -2 6 -13 5 -11 0 -14 -3 -6 -6z"/>
<path d="M5270 1596 c0 -2 7 -6 15 -10 8 -3 15 -1 15 4 0 6 -7 10 -15 10 -8 0
-15 -2 -15 -4z"/>
<path d="M5241 1581 c-12 -8 -13 -14 -3 -37 12 -25 14 -25 31 -10 21 19 42 20
61 4 12 -11 12 -10 1 5 -16 20 -42 22 -59 5 -19 -19 -40 6 -22 27 14 17 12 19
-9 6z"/>
<path d="M5388 1583 c7 -3 16 -2 19 1 4 3 -2 6 -13 5 -11 0 -14 -3 -6 -6z"/>
<path d="M2116 1545 c-11 -8 -15 -15 -9 -15 6 0 16 7 23 15 16 19 11 19 -14 0z"/>
<path d="M2176 1548 c-11 -35 -13 -58 -6 -53 4 3 10 18 12 35 5 30 1 41 -6 18z"/>
<path d="M5167 1533 c-3 -5 8 -8 25 -9 20 -1 25 2 16 7 -16 11 -35 11 -41 2z"/>
<path d="M2130 1511 c0 -6 4 -13 10 -16 6 -3 7 1 4 9 -7 18 -14 21 -14 7z"/>
<path d="M2201 1504 c0 -11 3 -14 6 -6 3 7 2 16 -1 19 -3 4 -6 -2 -5 -13z"/>
<path d="M5142 1490 c0 -14 2 -19 5 -12 2 6 2 18 0 25 -3 6 -5 1 -5 -13z"/>
<path d="M2234 1479 c-3 -5 6 -9 20 -9 31 0 34 6 6 13 -11 3 -23 1 -26 -4z"/>
<path d="M5061 1459 c-1 -8 5 -23 12 -33 13 -17 14 -18 20 -2 4 10 3 15 -3 11
-6 -4 -14 4 -19 17 -6 14 -10 17 -10 7z"/>
<path d="M5178 1443 c6 -2 18 -2 25 0 6 3 1 5 -13 5 -14 0 -19 -2 -12 -5z"/>
<path d="M2278 1413 c7 -3 16 -2 19 1 4 3 -2 6 -13 5 -11 0 -14 -3 -6 -6z"/>
<path d="M4956 1412 c-3 -5 1 -9 9 -9 8 0 15 4 15 9 0 4 -4 8 -9 8 -6 0 -12
-4 -15 -8z"/>
<path d="M2330 1391 c0 -10 19 -25 25 -20 1 2 -3 10 -11 17 -8 7 -14 8 -14 3z"/>
<path d="M2421 1374 c0 -11 3 -14 6 -6 3 7 2 16 -1 19 -3 4 -6 -2 -5 -13z"/>
<path d="M4991 1370 c14 -31 19 -36 19 -24 0 6 -7 19 -16 30 -14 18 -14 18 -3
-6z"/>
<path d="M4869 1363 c-13 -16 -12 -17 3 -5 28 22 62 11 69 -23 6 -28 7 -28 8
-4 0 14 -4 30 -11 37 -18 18 -53 15 -69 -5z"/>
<path d="M2565 1347 c-15 -19 -14 -47 2 -47 8 0 11 5 7 12 -5 8 -2 9 11 5 9
-4 24 -2 31 4 17 14 18 26 2 26 -7 0 -20 3 -28 6 -8 4 -19 1 -25 -6z"/>
<path d="M4824 1311 c12 -22 13 -31 4 -31 -9 0 -9 -3 0 -12 6 -6 15 -9 18 -5
8 7 -14 65 -28 73 -5 4 -2 -8 6 -25z"/>
<path d="M4860 1324 c0 -13 18 -39 24 -34 2 3 -2 14 -10 24 -8 11 -14 16 -14
10z"/>
<path d="M4757 1299 c4 -15 8 -17 14 -8 5 8 12 10 21 3 8 -5 5 -1 -5 9 -26 23
-36 22 -30 -4z"/>
<path d="M2676 1295 c4 -8 8 -15 10 -15 2 0 4 7 4 15 0 8 -4 15 -10 15 -5 0
-7 -7 -4 -15z"/>
<path d="M2215 1290 c3 -6 10 -10 15 -10 4 0 42 -23 84 -51 42 -28 79 -48 84
-45 4 2 14 0 22 -6 12 -8 12 -9 -2 -4 -10 3 -18 1 -18 -5 0 -7 10 -9 26 -5 16
4 23 3 20 -3 -8 -12 55 -61 77 -61 10 0 17 -5 17 -11 0 -6 7 -8 16 -5 8 3 12
2 9 -4 -3 -6 -2 -10 4 -10 6 0 49 -18 96 -40 47 -22 91 -40 98 -40 7 0 17 -4
23 -9 26 -24 343 -115 514 -147 159 -29 592 -29 770 0 8 2 38 6 65 11 28 4
109 20 180 37 72 16 143 31 158 35 21 4 25 8 15 14 -8 6 -2 9 20 9 23 0 31 4
26 12 -5 8 0 9 15 5 24 -6 91 20 91 36 0 4 10 5 23 2 17 -5 19 -4 7 4 -13 9
-13 11 2 11 9 0 24 3 34 7 12 4 15 3 10 -5 -5 -8 -2 -10 10 -5 15 5 15 7 0 15
-10 6 -50 -2 -118 -22 -57 -17 -116 -33 -133 -35 -16 -2 -64 -11 -105 -20
-213 -47 -346 -60 -605 -60 -241 0 -307 4 -441 25 -366 59 -740 185 -1019 342
-71 40 -98 52 -90 38z"/>
<path d="M2600 1285 c10 -12 8 -16 -11 -24 -23 -9 -23 -10 -3 -10 12 -1 25 6
28 15 8 21 8 21 -10 28 -14 5 -15 4 -4 -9z"/>
<path d="M2737 1279 c7 -7 15 -10 18 -7 3 3 -2 9 -12 12 -14 6 -15 5 -6 -5z"/>
<path d="M2800 1261 c0 -5 5 -13 10 -16 6 -3 10 -2 10 4 0 5 -4 13 -10 16 -5
3 -10 2 -10 -4z"/>
<path d="M2715 1249 c-4 -6 -13 -8 -21 -5 -8 3 -14 -1 -14 -9 0 -21 14 -19 35
5 10 11 15 20 12 20 -3 0 -9 -5 -12 -11z"/>
<path d="M4588 1253 c7 -3 16 -2 19 1 4 3 -2 6 -13 5 -11 0 -14 -3 -6 -6z"/>
<path d="M2840 1230 c19 -13 30 -13 30 0 0 6 -10 10 -22 10 -19 0 -20 -2 -8
-10z"/>
<path d="M2648 1223 c7 -3 16 -2 19 1 4 3 -2 6 -13 5 -11 0 -14 -3 -6 -6z"/>
<path d="M2780 1210 c0 -17 2 -19 14 -8 14 13 12 28 -5 28 -5 0 -9 -9 -9 -20z"/>
<path d="M4485 1220 c-3 -6 1 -7 9 -4 18 7 21 14 7 14 -6 0 -13 -4 -16 -10z"/>
<path d="M4418 1203 c7 -3 16 -2 19 1 4 3 -2 6 -13 5 -11 0 -14 -3 -6 -6z"/>
<path d="M2830 1181 c0 -5 -8 -11 -17 -13 -13 -3 -11 -6 8 -9 22 -5 25 -3 21
13 -5 19 -12 24 -12 9z"/>
<path d="M4327 1183 c-10 -9 -8 -56 2 -72 6 -10 8 0 4 29 -6 40 -5 43 15 37
12 -3 20 -1 16 4 -6 11 -28 12 -37 2z"/>
<path d="M4401 1174 c-1 -11 6 -29 15 -40 8 -10 12 -13 9 -6 -4 8 -11 26 -15
40 -7 22 -8 23 -9 6z"/>
<path d="M3033 1162 c-7 -12 -8 -24 -2 -33 7 -11 9 -10 9 4 0 21 24 18 26 -4
2 -32 5 -37 24 -42 11 -3 17 -1 14 4 -3 6 0 17 7 25 14 17 13 18 -26 31 -16 6
-29 16 -27 22 3 17 -12 13 -25 -7z m71 -43 c-7 -11 -34 -12 -34 -1 0 14 11 21
26 15 8 -3 11 -9 8 -14z"/>
<path d="M3168 1163 c7 -3 16 -2 19 1 4 3 -2 6 -13 5 -11 0 -14 -3 -6 -6z"/>
<path d="M4248 1163 c6 -2 18 -2 25 0 6 3 1 5 -13 5 -14 0 -19 -2 -12 -5z"/>
<path d="M4462 1150 c0 -14 2 -19 5 -12 2 6 2 18 0 25 -3 6 -5 1 -5 -13z"/>
<path d="M3183 1153 c-13 -2 -23 -8 -23 -13 0 -5 14 -5 31 0 55 16 50 24 -8
13z"/>
<path d="M3290 1120 c-6 -16 -9 -34 -5 -39 3 -6 0 -11 -7 -11 -9 0 -9 -3 2
-10 20 -13 41 15 38 53 -3 39 -13 42 -28 7z"/>
<path d="M4128 1143 c7 -3 16 -2 19 1 4 3 -2 6 -13 5 -11 0 -14 -3 -6 -6z"/>
<path d="M3185 1128 c-33 -12 -45 -25 -44 -48 0 -9 4 -6 9 7 8 20 58 40 88 34
6 -1 12 3 12 9 0 13 -26 12 -65 -2z"/>
<path d="M3334 1131 c3 -5 15 -7 26 -4 28 7 25 13 -6 13 -14 0 -23 -4 -20 -9z"/>
<path d="M4240 1130 c0 -5 5 -10 11 -10 5 0 7 5 4 10 -3 6 -8 10 -11 10 -2 0
-4 -4 -4 -10z"/>
<path d="M3425 1120 c3 -5 10 -10 16 -10 5 0 9 5 9 10 0 6 -7 10 -16 10 -8 0
-12 -4 -9 -10z"/>
<path d="M4004 1112 c16 -19 17 -26 7 -50 l-12 -27 18 23 c15 19 21 20 33 10
12 -11 12 -11 1 4 -9 13 -10 22 -1 40 11 22 10 22 -4 4 -15 -19 -16 -19 -38 0
l-23 19 19 -23z"/>
<path d="M4285 1120 c3 -5 8 -10 11 -10 2 0 4 5 4 10 0 6 -5 10 -11 10 -5 0
-7 -4 -4 -10z"/>
<path d="M3345 1109 c-3 -3 3 -9 13 -11 11 -3 19 0 19 7 0 13 -25 16 -32 4z"/>
<path d="M3488 1113 c7 -3 16 -2 19 1 4 3 -2 6 -13 5 -11 0 -14 -3 -6 -6z"/>
<path d="M3555 1110 c-3 -6 1 -7 9 -4 10 4 16 1 16 -10 0 -10 -6 -13 -17 -9
-10 3 -15 3 -12 -1 4 -4 15 -8 26 -10 14 -3 20 1 19 12 -2 27 -29 42 -41 22z"/>
<path d="M3620 1116 c0 -2 7 -6 15 -10 8 -3 15 -1 15 4 0 6 -7 10 -15 10 -8 0
-15 -2 -15 -4z"/>
<path d="M3807 1113 c-4 -3 -6 -25 -6 -47 1 -23 3 -33 6 -23 3 10 14 17 28 17
13 0 26 4 29 8 3 5 -8 6 -25 4 -24 -4 -29 -1 -29 16 0 13 8 22 23 25 20 4 20
4 1 6 -11 0 -24 -2 -27 -6z"/>
<path d="M3178 1103 c-10 -2 -18 -11 -18 -19 0 -8 8 -14 18 -14 13 0 14 2 4 9
-11 7 -10 10 3 15 35 13 55 7 54 -16 -1 -17 -2 -19 -6 -5 -5 21 -20 23 -20 2
0 -20 27 -28 33 -10 14 37 -14 52 -68 38z"/>
<path d="M4090 1091 c0 -25 6 -27 13 -6 4 8 2 17 -3 20 -6 4 -10 -3 -10 -14z"/>
<path d="M3428 1093 c6 -2 18 -2 25 0 6 3 1 5 -13 5 -14 0 -19 -2 -12 -5z"/>
<path d="M3342 1081 c-11 -7 -11 -9 2 -14 10 -4 16 -1 16 8 0 17 -1 17 -18 6z"/>
<path d="M3611 1051 c2 -30 3 -32 6 -8 2 15 9 27 14 27 5 0 9 4 9 8 0 5 -7 9
-15 9 -11 0 -15 -10 -14 -36z"/>
<path d="M4260 1076 c4 -4 16 -4 26 2 16 9 14 10 -8 9 -15 -1 -23 -6 -18 -11z"/>
<path d="M3433 1073 c9 -2 25 -2 35 0 9 3 1 5 -18 5 -19 0 -27 -2 -17 -5z"/>
<path d="M3418 1053 c6 -2 18 -2 25 0 6 3 1 5 -13 5 -14 0 -19 -2 -12 -5z"/>
<path d="M3540 1040 c0 -11 2 -20 4 -20 2 0 6 9 9 20 3 11 1 20 -4 20 -5 0 -9
-9 -9 -20z"/>
<path d="M3584 1040 c0 -11 4 -20 8 -20 4 0 8 9 8 20 0 11 -4 20 -8 20 -4 0
-8 -9 -8 -20z"/>
<path d="M4113 1053 c9 -2 25 -2 35 0 9 3 1 5 -18 5 -19 0 -27 -2 -17 -5z"/>
<path d="M3328 1043 c7 -3 16 -2 19 1 4 3 -2 6 -13 5 -11 0 -14 -3 -6 -6z"/>
<path d="M3486 1035 c4 -8 8 -15 10 -15 2 0 4 7 4 15 0 8 -4 15 -10 15 -5 0
-7 -7 -4 -15z"/>
</g>
</svg>
